<svg xmlns="http://www.w3.org/2000/svg" xmlns:xlink="http://www.w3.org/1999/xlink" version="1.1" x="0px" y="0px" viewBox="0 0 150 187.5" style="enable-background:new 0 0 150 150;" xml:space="preserve"><style type="text/css">
	.st0{fill:#030000;}
</style><g><path class="st0" d="M58.8,10.4c-4.2-4.8-10.4-7.9-17.4-7.9c-12.8,0-23.1,10.3-23.1,23.1c0,2.8,0.5,5.4,1.4,7.9L58.8,10.4z"/><path class="st0" d="M131.7,25.6c0-12.8-10.3-23.1-23.1-23.1c-6.9,0-13.1,3.1-17.4,7.9l39.1,23.1C131.2,31,131.7,28.4,131.7,25.6z"/><path class="st0" d="M134.5,77.5c0-30.3-22.7-55.4-52-59.1v-2c0-4.1-3.4-7.5-7.5-7.5s-7.5,3.4-7.5,7.5v2c-29.3,3.7-52,28.7-52,59.1   c0,20.1,10,37.8,25.2,48.6c0,0.1-0.1,0.1-0.1,0.1l-6.2,11.2c-1.8,3.2-0.6,7.3,2.6,9.1c1,0.6,2.1,0.8,3.2,0.8c2.4,0,4.7-1.3,5.9-3.5   l6.2-11.2c0-0.1,0-0.1,0.1-0.2c7,2.9,14.6,4.5,22.6,4.5c8.1,0,15.8-1.6,22.8-4.5c0,0.1,0,0.1,0.1,0.2l6,11.2   c1.2,2.3,3.5,3.6,5.9,3.6c1.1,0,2.1-0.3,3.2-0.8c3.3-1.7,4.5-5.8,2.8-9.1l-6-11.2c-0.1-0.1-0.2-0.2-0.2-0.4   C124.7,115.2,134.5,97.5,134.5,77.5z M99.3,51.7L76.1,87.3l-27-20.7C47,65,46.6,62,48.2,59.9c1.6-2.1,4.6-2.5,6.7-0.9l18.9,14.4   l17.6-26.9c1.4-2.2,4.4-2.8,6.6-1.4C100.2,46.5,100.8,49.5,99.3,51.7z"/></g><text x="0" y="165" fill="#000000" font-size="5px" font-weight="bold" font-family="'Helvetica Neue', Helvetica, Arial-Unicode, Arial, Sans-serif">Created by parkjisun</text><text x="0" y="170" fill="#000000" font-size="5px" font-weight="bold" font-family="'Helvetica Neue', Helvetica, Arial-Unicode, Arial, Sans-serif">from the Noun Project</text></svg>