<svg xmlns="http://www.w3.org/2000/svg" xmlns:xlink="http://www.w3.org/1999/xlink" version="1.1" x="0px" y="0px" viewBox="0 0 100 125" enable-background="new 0 0 100 100" xml:space="preserve"><path d="M72.996,58.426C67.851,51.287,59.472,46.636,50,46.636c-9.471,0-17.851,4.651-22.996,11.79L72.996,58.426z"/><path d="M97.183,68.637H2.817C1.261,68.637,0,67.376,0,65.82s1.261-2.817,2.817-2.817h94.366c1.556,0,2.817,1.261,2.817,2.817  S98.739,68.637,97.183,68.637z"/><path d="M21.599,58.426c5.7-9.763,16.28-16.327,28.401-16.327c12.12,0,22.702,6.565,28.402,16.328h6.459  c-0.89-0.689-1.674-1.459-2.211-2.303c-2.392-3.769-1.346-10.341-1.346-10.341c0.221-1.385-0.732-2.337-2.115-2.117  c0,0-6.57,1.046-10.338-1.344c-3.768-2.397-6.087-9.677-6.087-9.677c-0.425-1.335-1.645-1.685-2.711-0.775  c0,0-5.508,4.704-10.054,4.712c-4.544-0.008-10.054-4.712-10.054-4.712c-1.068-0.911-2.286-0.563-2.712,0.773  c0,0-2.317,7.282-6.085,9.679c-3.769,2.391-10.339,1.344-10.339,1.344c-1.384-0.22-2.337,0.732-2.117,2.117  c0,0,1.046,6.57-1.344,10.339c-0.537,0.844-1.32,1.615-2.211,2.304L21.599,58.426z"/><text x="0" y="115" fill="#000000" font-size="5px" font-weight="bold" font-family="'Helvetica Neue', Helvetica, Arial-Unicode, Arial, Sans-serif">Created by Lil Squid</text><text x="0" y="120" fill="#000000" font-size="5px" font-weight="bold" font-family="'Helvetica Neue', Helvetica, Arial-Unicode, Arial, Sans-serif">from the Noun Project</text></svg>