<svg xmlns="http://www.w3.org/2000/svg" xmlns:xlink="http://www.w3.org/1999/xlink" version="1.1" x="0px" y="0px" viewBox="0 0 96.994 125" enable-background="new 0 0 96.994 100" xml:space="preserve"><g><path fill="#000000" d="M95.374,76.85c-1.002,0.824-2.384,1.336-3.903,1.336H43.5c-3.039,0-5.523-2.043-5.523-4.541V66.36H16.875   c-0.327-2.34-1.104-5.258-2.913-7.8c-2.871-4.043-7.485-5.95-9.479-6.62V41.13c0-1.161-0.941-2.102-2.103-2.102   s-2.103,0.941-2.103,2.102v56.767c0,1.162,0.941,2.104,2.103,2.104s2.103-0.941,2.103-2.104V82.172   c0.944,0.619,2.125,1.008,3.42,1.008h83.566c0.456,0,0.894-0.061,1.318-0.146v14.863c0,1.162,0.94,2.104,2.103,2.104   s2.103-0.941,2.103-2.104V78.975h-0.041c0.01-0.113,0.041-0.223,0.041-0.336v-3.408C96.612,75.87,96.058,76.422,95.374,76.85z    M4.484,67.368v-7.873c0.468,1.443,1.14,2.926,2.116,4.299c0.694,0.977,1.49,1.826,2.326,2.566H7.905   C6.609,66.36,5.429,66.749,4.484,67.368z"/><circle fill="#000000" cx="79.583" cy="17.291" r="6.976"/><path fill="#000000" d="M92.452,56.897H50.419h-5.14c-4.663,0-10.177,0-10.177,0c-0.233-0.017-3.743-0.367-3.743-5.957v-6.362   h2.103v6.362c0,3.559,1.569,3.852,1.635,3.861l14.875-0.007c0.192-0.308,0.315-0.658,0.315-1.052c0-1.16-0.94-2.102-2.103-2.102   H38.124v-7.723c0-2.498-2.044-4.542-4.542-4.542h-3.532c-2.498,0-4.542,2.044-4.542,4.542v15.797c0,0.061,0.015,0.115,0.018,0.175   c-0.002,0.056-0.018,0.106-0.018,0.163c0,2.312,2.044,4.204,4.542,4.204h3.532h7.155v7.052c0,2.498,2.043,4.541,4.542,4.541h47.173   c2.497,0,4.542-2.043,4.542-4.541v-9.871C96.994,58.941,94.949,56.897,92.452,56.897z"/><path fill="#000000" d="M78.645,27.084v6.8c0,0.519,0.421,0.938,0.938,0.938s0.938-0.42,0.938-0.938v-6.8   c0-0.519-0.421-0.938-0.938-0.938S78.645,26.565,78.645,27.084z"/><path fill="#000000" d="M79.583,8.677c0.518,0,0.938-0.42,0.938-0.938v-6.8C80.521,0.42,80.101,0,79.583,0s-0.938,0.42-0.938,0.938   v6.8C78.645,8.257,79.065,8.677,79.583,8.677z"/><path fill="#000000" d="M63.109,18.35h6.801c0.52,0,0.938-0.42,0.938-0.938c0-0.518-0.419-0.938-0.938-0.938h-6.801   c-0.519,0-0.938,0.42-0.938,0.938C62.172,17.93,62.591,18.35,63.109,18.35z"/><path fill="#000000" d="M88.317,17.411c0,0.519,0.419,0.938,0.938,0.938h6.8c0.52,0,0.938-0.42,0.938-0.938   c0-0.518-0.419-0.938-0.938-0.938h-6.8C88.736,16.473,88.317,16.893,88.317,17.411z"/><path fill="#000000" d="M85.759,23.587c-0.365,0.367-0.365,0.961,0,1.326l4.809,4.81c0.185,0.183,0.423,0.274,0.665,0.274   c0.238,0,0.479-0.091,0.661-0.274c0.368-0.367,0.368-0.96,0-1.327l-4.809-4.81C86.72,23.222,86.124,23.222,85.759,23.587z"/><path fill="#000000" d="M72.08,11.235c0.183,0.183,0.423,0.274,0.663,0.274s0.479-0.091,0.664-0.274   c0.365-0.368,0.365-0.961,0-1.327L68.598,5.1c-0.367-0.366-0.96-0.366-1.326,0c-0.367,0.367-0.367,0.96,0,1.327L72.08,11.235z"/><path fill="#000000" d="M72.08,23.587l-4.809,4.81c-0.367,0.367-0.367,0.96,0,1.327c0.183,0.183,0.423,0.274,0.661,0.274   c0.242,0,0.48-0.091,0.665-0.274l4.81-4.81c0.365-0.365,0.365-0.959,0-1.326C73.041,23.222,72.446,23.222,72.08,23.587z"/><path fill="#000000" d="M86.422,11.509c0.24,0,0.48-0.091,0.663-0.274l4.809-4.809c0.368-0.367,0.368-0.96,0-1.327   c-0.365-0.366-0.958-0.366-1.326,0l-4.809,4.809c-0.365,0.366-0.365,0.959,0,1.327C85.943,11.418,86.182,11.509,86.422,11.509z"/><circle fill="#000000" cx="32.967" cy="30.025" r="7.468"/></g><text x="0" y="115" fill="#000000" font-size="5px" font-weight="bold" font-family="'Helvetica Neue', Helvetica, Arial-Unicode, Arial, Sans-serif">Created by Alexandria Eddings</text><text x="0" y="120" fill="#000000" font-size="5px" font-weight="bold" font-family="'Helvetica Neue', Helvetica, Arial-Unicode, Arial, Sans-serif">from the Noun Project</text></svg>