<svg xmlns="http://www.w3.org/2000/svg" xmlns:xlink="http://www.w3.org/1999/xlink" version="1.1" x="0px" y="0px" viewBox="0 0 100 125" enable-background="new 0 0 100 100" xml:space="preserve"><path d="M71.31,76.032c4.37-4.986,7.026-11.514,7.026-18.666c0-15.649-12.686-28.336-28.335-28.336S21.665,41.718,21.665,57.366  c0,7.152,2.656,13.68,7.026,18.666H71.31z"/><path d="M7.673,70.132c0,0,7.037,2.242,9.552,5.901h5.72c-3.665-5.304-5.818-11.732-5.818-18.666  c0-18.155,14.717-32.873,32.873-32.873s32.873,14.718,32.873,32.873c0,6.934-2.152,13.363-5.818,18.666h5.721  c2.514-3.658,9.551-5.901,9.551-5.901c1.335-0.425,1.684-1.644,0.773-2.711c0,0-4.704-5.508-4.711-10.051  c0.007-4.546,4.711-10.056,4.711-10.056c0.911-1.068,0.563-2.286-0.773-2.711c0,0-7.28-2.318-9.677-6.084  c-2.392-3.769-1.346-10.341-1.346-10.341c0.221-1.385-0.732-2.337-2.115-2.117c0,0-6.57,1.046-10.338-1.344  c-3.768-2.397-6.086-9.677-6.086-9.677c-0.425-1.335-1.645-1.685-2.711-0.775c0,0-5.509,4.704-10.054,4.712  c-4.544-0.008-10.054-4.712-10.054-4.712c-1.068-0.911-2.286-0.563-2.712,0.773c0,0-2.317,7.282-6.085,9.679  c-3.769,2.391-10.339,1.344-10.339,1.344c-1.384-0.22-2.337,0.732-2.117,2.117c0,0,1.046,6.57-1.344,10.339  c-2.396,3.768-9.678,6.085-9.678,6.085c-1.335,0.425-1.684,1.645-0.773,2.711c0,0,4.704,5.509,4.712,10.054  c-0.007,4.546-4.712,10.056-4.712,10.056C5.989,68.488,6.337,69.708,7.673,70.132z"/><path d="M97.183,86.244H2.817C1.261,86.244,0,84.982,0,83.427s1.261-2.817,2.817-2.817h94.366c1.556,0,2.817,1.261,2.817,2.817  S98.739,86.244,97.183,86.244z"/><text x="0" y="115" fill="#000000" font-size="5px" font-weight="bold" font-family="'Helvetica Neue', Helvetica, Arial-Unicode, Arial, Sans-serif">Created by Lil Squid</text><text x="0" y="120" fill="#000000" font-size="5px" font-weight="bold" font-family="'Helvetica Neue', Helvetica, Arial-Unicode, Arial, Sans-serif">from the Noun Project</text></svg>