<svg xmlns="http://www.w3.org/2000/svg" xmlns:xlink="http://www.w3.org/1999/xlink" version="1.1" x="0px" y="0px" viewBox="0.635 11.589 100 88.1425" enable-background="new 0.635 11.589 100 70.514" xml:space="preserve"><circle fill="#000000" cx="40.785" cy="28.007" r="4.885"/><path fill="#000000" d="M92.952,73.655c1.547-0.516,4.548-0.688,1.071-2.063s-6.466-4.125-5.144-3.953s1.667,2.906,2.698-0.008  c1.031-2.914-2.406-14.602-6.188-15.634c-3.782-1.031-4.813-3.094-6.016-4.641s-2.75,2.235-3.954,1.203  c-1.203-1.031-1.031-3.984-3.437-2.164c-2.406,1.82-2.235,5.415-3.953,3.618c-1.719-1.797-2.406-1.626-2.922-0.766  c-0.516,0.859-1.203,1.719-2.063,1.89c-0.859,0.172-5.671,0.403-2.406,1.921c3.265,1.517,14.094,7.189,15.985,10.283  c1.89,3.094,5.5,12.204,5.5,12.204c1.375,3.953,14.267,4.125,11.516,0c-0.636-0.953-1.089-1.528-1.404-1.871  C92.433,73.733,92.675,73.748,92.952,73.655z"/><path fill="#000000" d="M60.203,53.995c-0.347-0.162-0.98-0.458-1.374-0.933l-7.912,0.01l0.163-1.009  c0.178-1.415-0.944-3.501-2.313-3.673L46.2,49.24v-8.688l5.293-12.355c0.014-0.029,0.022-0.061,0.034-0.09l5.182-11.055  c0.359-0.696,0.39-1.384-0.288-1.752s-1.138,0.081-1.496,0.777l-6.392,10.572L44.3,35.223c-0.948-0.484-2.166-0.693-3.515-0.693  c-1.274,0-2.43,0.187-3.355,0.615l-4.219-8.549l-6.393-10.572c-0.359-0.696-0.818-1.145-1.496-0.777  c-0.678,0.368-0.647,1.056-0.288,1.752l5.182,11.055c0.012,0.029,0.02,0.061,0.034,0.09l5.12,11.95v9.148l-2.578-0.854  c-1.369,0.172-2.492,2.259-2.313,3.673l0.166,1.036l-20.389,0.028V36.431c0-0.612-0.496-1.107-1.107-1.107H6.742  c-0.612,0-1.107,0.496-1.107,1.107v39.611c0,0.612,0.496,1.107,1.107,1.107h2.407c0.612,0,1.107-0.496,1.107-1.107V58.855  c0-0.612,0.496-1.107,1.107-1.107h20.029l2.668,16.597c0.178,1.415,0.798,3.497,2.167,3.325c1.369-0.172,1.556-1.567,1.378-2.982  l-0.499-16.94h7.345l-0.499,16.939c-0.178,1.415,0.009,2.808,1.378,2.982c1.369,0.172,1.989-1.91,2.167-3.325l2.667-16.597H67.33  C64.593,56.173,61.852,54.761,60.203,53.995z"/><path fill="#000000" d="M78.857,70.37v5.672c0,0.612,0.496,1.107,1.107,1.107h1.96c-0.341-0.365-0.604-0.772-0.761-1.223  C81.144,75.878,80.1,73.249,78.857,70.37z"/><path fill="#000000" d="M27.66,52.071c0.197-0.216,0.336-0.465,0.389-0.76c1.134-6.289-6.641,1.767-15.539-6.875  c-0.623-0.605-1-0.284-1.222,0.473v6.441c0.413,0.103,1.666,0.407,3.316,0.739L27.66,52.071z"/><text x="0.635" y="97.103" fill="#000000" font-size="5px" font-weight="bold" font-family="'Helvetica Neue', Helvetica, Arial-Unicode, Arial, Sans-serif">Created by Claire Jones</text><text x="0.635" y="102.103" fill="#000000" font-size="5px" font-weight="bold" font-family="'Helvetica Neue', Helvetica, Arial-Unicode, Arial, Sans-serif">from the Noun Project</text></svg>