<svg xmlns="http://www.w3.org/2000/svg" xmlns:xlink="http://www.w3.org/1999/xlink" version="1.1" x="0px" y="0px" viewBox="0.633 20.333 100 73.05375" enable-background="new 0.633 20.333 100 58.443" xml:space="preserve"><circle fill="#000000" cx="40.785" cy="28.14" r="4.885"/><path fill="#000000" d="M92.95,70.932c1.547-0.516,4.548-0.688,1.071-2.062c-3.477-1.375-6.466-4.125-5.144-3.953  s1.667,2.906,2.698-0.008c1.031-2.914-2.406-14.602-6.187-15.633c-3.782-1.031-4.813-3.094-6.016-4.641s-2.75,2.235-3.954,1.203  c-1.203-1.031-1.031-3.984-3.437-2.164c-2.406,1.82-2.235,5.415-3.953,3.618c-1.719-1.797-2.406-1.626-2.922-0.766  c-0.516,0.859-1.203,1.719-2.062,1.89c-0.859,0.172-5.671,0.403-2.406,1.921c3.265,1.517,14.094,7.189,15.984,10.283  c1.89,3.094,5.5,12.204,5.5,12.204c1.375,3.953,14.266,4.125,11.516,0c-0.635-0.953-1.089-1.528-1.404-1.871  C92.431,71.01,92.673,71.024,92.95,70.932z"/><path fill="#000000" d="M78.856,67.647v5.672c0,0.612,0.496,1.107,1.107,1.107h1.96c-0.341-0.365-0.604-0.772-0.761-1.223  C81.143,73.154,80.098,70.526,78.856,67.647z"/><path fill="#000000" d="M27.66,49.349c0.197-0.216,0.336-0.465,0.389-0.76c1.134-6.289-6.64,1.767-15.538-6.875  c-0.623-0.605-1-0.284-1.222,0.473v6.44c0.413,0.103,1.666,0.407,3.316,0.739L27.66,49.349z"/><path fill="#000000" d="M60.2,51.272c-0.342-0.162-0.98-0.457-1.37-0.932l-5.813,0.01h-2.102l0.162-1.008  c0.097-0.76-0.188-1.705-0.678-2.451c0.732-0.8,0.603-1.648,0.54-1.856l-1.937-9.712c-0.713-1.827-2.238-2.15-2.903-1.948  l-1.545,0.428c-0.022,0.007-0.034,0.023-0.054,0.032c-0.973-0.013-2.277,0.313-3.715,0.313c-1.162,0-2.237-0.213-3.12-0.289  c-0.032-0.018-0.057-0.045-0.094-0.055l-1.545-0.428c-0.665-0.201-2.19,0.122-2.903,1.948l-1.937,9.71  c-0.082,0.271-0.049,0.889,0.264,1.461c-0.668,0.777-1.083,1.944-0.967,2.845l0.162,1.037h-1.903l-18.485,0.029V33.711  c0-0.609-0.495-1.113-1.104-1.113H6.746c-0.618,0-1.113,0.504-1.113,1.113v39.604c0,0.618,0.495,1.113,1.113,1.113h2.407  c0.609,0,1.104-0.495,1.104-1.113V56.133c0-0.609,0.495-1.113,1.113-1.113h20.025l2.664,16.601c0.181,1.417,0.799,3.501,2.169,3.32  c1.37-0.171,1.56-1.56,1.379-2.978L37.102,55.02h7.354l-0.504,16.943c-0.181,1.417,0.01,2.806,1.379,2.978  c1.37,0.181,1.988-1.903,2.169-3.32l2.664-16.601h17.162C64.596,53.451,61.856,52.043,60.2,51.272z M46.226,40.348l1.703,3.999  l-1.703,1.849V40.348z M35.345,41.649v3.946l-1.149-1.247L35.345,41.649z"/><text x="0.633" y="93.776" fill="#000000" font-size="5px" font-weight="bold" font-family="'Helvetica Neue', Helvetica, Arial-Unicode, Arial, Sans-serif">Created by Claire Jones</text><text x="0.633" y="98.776" fill="#000000" font-size="5px" font-weight="bold" font-family="'Helvetica Neue', Helvetica, Arial-Unicode, Arial, Sans-serif">from the Noun Project</text></svg>