<svg xmlns="http://www.w3.org/2000/svg" xmlns:xlink="http://www.w3.org/1999/xlink" version="1.1" x="0px" y="0px" viewBox="0 0 100 125" enable-background="new 0 0 100 100" xml:space="preserve"><path fill="#000000" d="M95.912,38.852c-0.303-0.504-0.646-0.975-1.021-1.426c-0.863-1.056-1.883-1.98-2.905-2.876  c-2.445-2.128-4.97-4.148-7.966-5.449c-0.857-0.376-1.954-0.867-2.919-0.867c-0.298,0-0.575-0.157-0.813-0.323  c-0.573-0.398-1.039-0.976-1.455-1.532c-0.64-0.861-1.097-1.66-2.062-2.206c-0.829-0.468-1.311-0.45-2.258-0.554  c-0.882-0.099-1.832-0.045-2.549,0.21c-0.359,0.13-0.686,0.035-1.062,0.109c-0.441,0.086-0.852,0.281-1.297,0.356  c-2.107,0.356-3.078-0.083-3.75,1.013c-0.373,0.625-0.089,1.053-0.373,1.726c-0.381,0.874-1.565,1.654-1.04,2.767  c0.249,0.533,1.129,0.862,1.64,1.083c0.604,0.265,1.107,0.292,1.476,0.839c0.502,0.742,1.592,0.918,2.286,0.254  c0.231-0.219,0.321-0.257,0.554-0.491c0.205-0.19,0.479-0.261,0.708-0.418c0.229-0.158,0.356-0.425,0.59-0.559  c0.373-0.227,0.55-0.119,0.968-0.201c0.678-0.125,1.348-0.67,1.773-1.088c0.229-0.203,0.286-0.511,0.498-0.705  c0.03-0.033,0.073-0.044,0.112-0.067c1.788,0.801,6.146,9.693,6.146,9.693c-3.908-3.315-8.83,0-8.83,0  c-7.463-2.536-11.707,2.717-11.707,2.717c-0.081,0.095-1.808-0.177-2.046-0.188c-0.613-0.035-1.222-0.053-1.841,0  c-0.485,0.042-0.855,0.138-0.906-0.434c-0.031-0.33,0.04-0.738,0.04-1.067c0-0.254-0.049-0.563,0-0.804  c0.143-0.739,0.602-1.388,0.752-2.148c0.146-0.769,0.099-1.546,0.405-2.28c0.244-0.572,0.871-0.632,1.308-1.009  c0.522-0.448,0.827-1.13,0.827-1.806c0-1.15-0.803-2.1-1.879-2.342c-0.474-1.147-0.223-2.077-0.223-3.253  c0-3.987-3.14-7.23-7.057-7.356v-0.01c-0.014,0-0.026,0.007-0.033,0.007c-0.018,0-0.024-0.007-0.041-0.007v0.01  c-3.913,0.126-7.056,3.369-7.056,7.356c0,1.176,0.249,2.105-0.228,3.253c-1.075,0.242-1.874,1.191-1.874,2.342  c0,0.676,0.305,1.357,0.829,1.806c0.435,0.377,1.059,0.437,1.304,1.009c0.309,0.734,0.261,1.512,0.412,2.28  c0.142,0.761,0.608,1.409,0.752,2.148c0.039,0.24,0,0.55-0.007,0.804c0,0.329,0.074,0.737,0.044,1.067  c-0.053,0.571-0.424,0.476-0.907,0.434c-0.617-0.053-1.224-0.035-1.84,0c-0.237,0.012-1.967,0.283-2.048,0.188  c0,0-4.239-5.253-11.707-2.717c0,0-4.921-3.315-8.83,0c0,0,4.358-8.893,6.144-9.693c0.037,0.023,0.081,0.034,0.112,0.067  c0.212,0.194,0.279,0.502,0.496,0.705c0.435,0.418,1.104,0.963,1.783,1.088c0.41,0.082,0.587-0.025,0.96,0.201  c0.231,0.134,0.366,0.4,0.589,0.559c0.226,0.157,0.507,0.228,0.712,0.418c0.233,0.234,0.319,0.272,0.554,0.491  c0.702,0.664,1.79,0.488,2.283-0.254c0.37-0.547,0.876-0.574,1.478-0.839c0.516-0.221,1.391-0.55,1.636-1.083  c0.524-1.112-0.659-1.893-1.029-2.767c-0.294-0.673,0-1.101-0.384-1.726c-0.666-1.096-1.634-0.656-3.743-1.013  c-0.441-0.075-0.857-0.271-1.293-0.356c-0.382-0.074-0.707,0.021-1.071-0.109c-0.712-0.255-1.662-0.309-2.543-0.21  c-0.945,0.104-1.431,0.086-2.263,0.554c-0.959,0.546-1.415,1.345-2.057,2.206c-0.416,0.557-0.883,1.134-1.462,1.532  c-0.237,0.166-0.506,0.323-0.812,0.323c-0.961,0-2.063,0.491-2.919,0.867c-2.996,1.301-5.513,3.321-7.962,5.449  c-1.034,0.896-2.042,1.82-2.912,2.876c-0.372,0.451-0.713,0.922-1.013,1.426c-0.531,0.886-0.47,2.504,0.028,3.37  c0.624,1.083,1.709,2.004,2.554,2.904c2.952,3.164,6.846,4.918,11.02,5.904c1.674,0.393,3.387,0.625,5.108,0.739  c0.537,0.035,5.999,0.291,6.031,0.095c-0.007,0.011-1.019,8.646,5.764,15.413c0,0-0.086,9.066,3.224,12.369  c0,0,4.625,2.102,12.143,2.195l0,0c0.016,0,0.023,0,0.041,0c0.007,0,0.019,0,0.033,0l0,0c7.518-0.094,12.145-2.195,12.145-2.195  c3.308-3.303,3.227-12.369,3.227-12.369c6.784-6.767,5.765-15.402,5.765-15.413c0.029,0.196,5.49-0.06,6.023-0.095  c1.725-0.114,3.433-0.347,5.109-0.739c4.176-0.986,8.066-2.74,11.021-5.904c0.847-0.9,1.929-1.821,2.551-2.904  C96.386,41.355,96.435,39.737,95.912,38.852z"/><text x="0" y="115" fill="#000000" font-size="5px" font-weight="bold" font-family="'Helvetica Neue', Helvetica, Arial-Unicode, Arial, Sans-serif">Created by Nick Kinling</text><text x="0" y="120" fill="#000000" font-size="5px" font-weight="bold" font-family="'Helvetica Neue', Helvetica, Arial-Unicode, Arial, Sans-serif">from the Noun Project</text></svg>