<svg xmlns="http://www.w3.org/2000/svg" xmlns:xlink="http://www.w3.org/1999/xlink" version="1.1" x="0px" y="0px" viewBox="0 0 100 125" enable-background="new 0 0 100 100" xml:space="preserve"><g><path fill="#000000" d="M84.292,69.658l-21.02-48.412c-1.514-3.487-5.744-6.365-9.586-6.6c1.385-1.092,2.277-2.781,2.277-4.682   c0-3.295-2.67-5.964-5.965-5.964c-3.292,0-5.963,2.669-5.963,5.964c0,1.9,0.893,3.589,2.276,4.681   c-3.846,0.228-8.087,3.108-9.604,6.601L15.69,69.658c-1.581,3.64-0.472,4.434,2.464,1.766c0,0,8.302-7.543,24.096-9.538   c0.413,3.012,0.829,6.001,1.238,8.879c0.948,6.679,1.786,12.286,2.425,16.214c0.353,2.166,0.648,3.849,0.879,5.001   c0.132,0.658,0.245,1.156,0.346,1.522c0.076,0.277,0.149,0.498,0.232,0.691C47.934,95.525,49.1,96,50.002,96   c0.925,0,2.106-0.49,2.65-1.865c0.073-0.186,0.141-0.396,0.21-0.663c0.095-0.36,0.203-0.853,0.33-1.505   c0.225-1.149,0.515-2.828,0.863-4.989c0.636-3.944,1.472-9.547,2.42-16.205c0.413-2.904,0.834-5.911,1.25-8.933   c16.495,1.904,24.256,9.418,24.256,9.418C84.832,74.018,85.871,73.298,84.292,69.658z M50.002,93.234   c-0.759,0-6.424-42.984-8.657-61.918C35.516,39.264,27.708,51.69,27.454,51.69c-0.002,0-0.003,0-0.004-0.001   c-0.308-0.181,12.688-28.641,13.921-30.735c0.28-0.475,0.608-0.83,0.966-1.087c1.921-1.774,4.987-2.513,7.665-2.513   c2.707,0,5.809,0.755,7.727,2.57c0.327,0.252,0.628,0.589,0.888,1.029c0.023,0.041,0.054,0.094,0.085,0.153   c0.16,0.257,0.299,0.529,0.417,0.815c2.706,5.458,13.702,29.602,13.419,29.768c-0.001,0.001-0.002,0.001-0.004,0.001   c-0.255,0-8.055-12.417-13.882-20.363C56.396,50.267,50.687,93.234,50.002,93.234z M49.999,6.548c1.795,0,3.25,1.454,3.25,3.249   c0,1.795-1.455,3.25-3.25,3.25c-1.793,0-3.248-1.455-3.248-3.25C46.751,8.002,48.206,6.548,49.999,6.548z"/></g><text x="0" y="115" fill="#000000" font-size="5px" font-weight="bold" font-family="'Helvetica Neue', Helvetica, Arial-Unicode, Arial, Sans-serif">Created by Chris Kerr</text><text x="0" y="120" fill="#000000" font-size="5px" font-weight="bold" font-family="'Helvetica Neue', Helvetica, Arial-Unicode, Arial, Sans-serif">from the Noun Project</text></svg>