<svg xmlns="http://www.w3.org/2000/svg" xmlns:xlink="http://www.w3.org/1999/xlink" version="1.1" x="0px" y="0px" viewBox="0 0 100 125" enable-background="new 0 0 100 100" xml:space="preserve"><path d="M80.641,40.291c-1.471-3.429-4.984-5.705-8.9-5.353c-4.873,0.437-8.473,4.744-8.035,9.62  c0.301,3.365,2.463,6.083,5.365,7.327l0.002,0.005c-13.551,7.986-23.583,8.24-27.151,8.758c-3.518,0.51-2.94-5.619-2.94-5.619  c2.419-9.102-5.497-17.175-5.497-17.175c0.795-7.725-3.813-15.018-3.813-15.018C17.403,14.201,9.861,27.025,9.168,30.17  c-0.694,3.144,3.366,21.246,3.366,21.246c3.092,9.277,21.021,25.521,23.91,25.721c3.149,0.221,27.579-12.643,27.579-12.643  l7.371-4.729c2.463,3.377,6.547,5.443,11.014,5.043c6.768-0.607,11.766-6.59,11.158-13.359  C92.973,44.824,87.227,39.934,80.641,40.291z M72.459,42.947c0.314-0.028,0.557,0.16,0.715,0.412  c-0.377,0.334-0.742,0.685-1.076,1.064c-0.201-0.131-0.359-0.324-0.383-0.584C71.674,43.387,72.01,42.987,72.459,42.947z   M81.41,53.682c-0.627,0.057-1.18-0.404-1.236-1.03c-0.057-0.631,0.406-1.183,1.033-1.238c0.629-0.056,1.182,0.404,1.238,1.034  C82.502,53.073,82.039,53.625,81.41,53.682z"/><text x="0" y="115" fill="#000000" font-size="5px" font-weight="bold" font-family="'Helvetica Neue', Helvetica, Arial-Unicode, Arial, Sans-serif">Created by Tyler Glaude</text><text x="0" y="120" fill="#000000" font-size="5px" font-weight="bold" font-family="'Helvetica Neue', Helvetica, Arial-Unicode, Arial, Sans-serif">from the Noun Project</text></svg>