<svg xmlns="http://www.w3.org/2000/svg" xmlns:xlink="http://www.w3.org/1999/xlink" version="1.1" x="0px" y="0px" viewBox="0 0 100 125" enable-background="new 0 0 100 100" xml:space="preserve"><circle cx="83.8" cy="17.4" r="7.5"/><path d="M93.3,42.9l-6.2-1.2l-2-8.4l-1.7,12.7c0,0,0.1,0.1,0.1,0.1c0.4,0.2,8.9,1.7,9.1,1.7c1,0,1.9-0.9,2.1-2.1  C95,44.4,94.3,43.1,93.3,42.9z"/><path d="M87.9,87.1L81,59.1c-0.2,0.4-0.5,0.7-0.7,1.1c-0.3,0.5-0.7,1-0.7,1.2c-0.6,2-1.6,5.9-2.5,9.2l6.2,17.7  c0.2,0.9,1.6,2.1,2.9,1.8C87.4,89.7,88.1,88,87.9,87.1z"/><path d="M80.7,25.8c-2.2-0.4-4.2,0.1-4.9,2.2L62.5,52.5c-0.4,0.9-0.3,1.8,0.3,2.4L24.9,73.9c-0.2-0.3-0.5-0.6-0.8-0.7  c-0.3-0.1-0.6-0.1-0.9-0.1c-0.6,0-0.5,0-0.6-0.6c-0.2-1-0.9-1.8-1.8-2.4c-0.5-0.3-1-0.5-1.5-0.5c-0.6-0.1-1.1,0.2-1.5-0.1  c-0.3-0.3-2-2-2.2-1.6c-0.4,0.8-0.3,1.8-0.3,2.6c0,0.5,0.1,0.9,0.2,1.4c-0.2,0.5-0.3,1-0.3,1.5c0,0.8,0,1.7,0.3,2.5  c-1.8,0-3.3,0.4-4.7,1.6C9.9,78.3,8.9,79.1,8,80c-0.1,0.1-0.4,0.8-0.6,0.8c-0.3,0-0.6,0-0.9,0c-0.5,0-1.1-0.1-1.7,0  c-1,0.2-1.5,1.6-0.3,1.8c0.5,0.1,1.2,0.1,1.7,0.1c0.3,0,0.6,0,0.9,0c0.4,0,0.3,0.4,0.5,0.7c0.5,0.7,4.3,4.9,4.7,5.2  c0.8,0.9,2.3-0.4,2.5-1.3c0.2-0.6-0.2-1-0.6-1.4c-0.8-0.9-1.6-1.8-2.4-2.6c0.7-0.7,1.6-1.1,2.5-1.3c0.2,0,1.8-0.3,1.8-0.1  c0,1.2,0,2.4,0,3.5c0,1.2-0.1,2.6,1.6,2.6c1.6,0,1.6-1.2,1.6-2.4c0-2.1,0-4.3,0-6.4c0-1.4,1.1-1.1,2.1-1.1c1.1,0,2.6,0.3,3.3-0.7  c-0.7-0.3-1.5-0.7-2.2-1c0.5,0,1,0,1.5,0c0.9,0,1.2,0.2,1.2-0.8c0-0.3,0-0.5-0.1-0.8L64,55.5c0.8,0.1,1.7-0.4,2.1-1.2l5.9-8.5  l-0.8,3.4L70.1,54c-0.1,0.4-2,16-2,16l-11.9-3.5c-0.2-0.1-0.5-0.1-0.7-0.1c-0.9,0-2,0.4-2.3,1.2c-0.4,1.1,0.6,2.5,1.5,2.8l18.1,6.9  c0.8,0.3,1.8-0.2,2-1c0,0,2.8-11.2,4-15.3c0.3-1.1,2.3-2.9,2.5-5.1l0.7-5l2.7-20.8C84.9,27.4,83.1,26.2,80.7,25.8z"/><text x="0" y="115" fill="#000000" font-size="5px" font-weight="bold" font-family="'Helvetica Neue', Helvetica, Arial-Unicode, Arial, Sans-serif">Created by Claire Jones</text><text x="0" y="120" fill="#000000" font-size="5px" font-weight="bold" font-family="'Helvetica Neue', Helvetica, Arial-Unicode, Arial, Sans-serif">from the Noun Project</text></svg>