<svg xmlns="http://www.w3.org/2000/svg" xmlns:xlink="http://www.w3.org/1999/xlink" version="1.1" x="0px" y="0px" viewBox="0 0 100 125" enable-background="new 0 0 100 100" xml:space="preserve"><path d="M84.432,28.56c-9.213,0.854-8.452,5.603-10.732,6.552c-1.881,0.784-2.308,0.759-2.308,0.759s-6.807-0.126-10.417,2.279  c0,0-26.935,11.311-29.531,11.59c-2.596,0.28,0.38,1.165-22.031,0.47c0,0-5.19,1.266-2.849,6.173c0,0,4.369,10.16,10.636,10.634  c2.23,0.17,2.483-1.07,1.891-2.735c2.555-0.646-2.793-6.761-2.793-6.761s8.654,0.826,12.345,0.189  c0.36-0.062,0.858-0.165,1.441-0.301c0.929-0.057,1.778-0.144,2.499-0.268c4.637-0.8,23.066-5.906,30.424-10.277  c0.135,3.849,0.687,15.594,2.433,16.069c0.77,0.211,1.727,0.334,2.607,0.382c0.438,2.279,0.934,4.154,1.476,5.126  c2.278,4.084,11.584,2.152,11.964,0.948c0.586-1.856-7.88-2.563-7.88-2.563s-0.657-24.448-0.476-26.018  c0.073-0.646,1.044-0.285,1.329,0c0.286,0.285,7.216,8.167,15.288,4.463C97.821,41.569,93.642,27.705,84.432,28.56z M67.212,61.162  c-0.238,0.03-0.437-3.776-0.575-7.811c0.283,2.585,0.634,5.389,1.048,7.913C67.476,61.19,67.308,61.151,67.212,61.162z"/><text x="0" y="115" fill="#000000" font-size="5px" font-weight="bold" font-family="'Helvetica Neue', Helvetica, Arial-Unicode, Arial, Sans-serif">Created by Tyler Glaude</text><text x="0" y="120" fill="#000000" font-size="5px" font-weight="bold" font-family="'Helvetica Neue', Helvetica, Arial-Unicode, Arial, Sans-serif">from the Noun Project</text></svg>