<svg xmlns="http://www.w3.org/2000/svg" xmlns:xlink="http://www.w3.org/1999/xlink" version="1.1" x="0px" y="0px" viewBox="0 0 90 112.5" enable-background="new 0 0 90 90" xml:space="preserve"><g><path d="M88.261,54.285c-0.042-0.455-0.528-0.379-0.109-1.938c0.417-1.559-0.457-3.346-0.913-4.246   c-0.456-0.901-2.41-0.366-2.664-0.112c-0.253,0.253-0.709,0-2.229,0c-1.521,0-21.338-2.129-23.162-2.433   c-1.825-0.305-8.816-2.382-10.388-3.346c-1.572-0.962-2.181-1.773-3.954-2.635c-1.774-0.862-4.459-0.355-5.676,0   c0,0-1.419,0.988-2.255,1.673c-0.56,0.457-7.063,0.506-12.063,0.535l-0.104-0.037c-0.147-0.162-0.338-0.362-0.555-0.591   l-0.178-0.188c-0.116-0.122-0.308-0.127-0.429-0.012c-0.122,0.115-0.127,0.308-0.012,0.43l0.179,0.188   c0.07,0.075,0.137,0.146,0.202,0.214c-2.083,0.011-3.795,0.023-4.524,0.067c-2.508,0.152-6.386,3.726-7.526,4.562   c-1.444-0.836-6.386-1.521-8.363-0.152s-2.661,4.257-1.368,7.374c1.292,3.116,9.123,1.825,9.959,1.521   c0.836-0.304,0.608-2.965,1.216-3.422c0.608-0.455,1.52,0.152,1.749,0.532c1.521,2.661,5.93,1.598,6.462,1.142   c0.912,0.152,2.28,0.228,2.964,0.456c0.685,0.228,0.076,1.368-0.532,1.444c-0.608,0.076-1.216,0.152-0.836,0.761   c0.38,0.607,2.965,0.531,3.801,0.304c0.685,1.064,0.228,3.573-1.063,3.726c-1.293,0.152-5.069,0.38-5.956,0.658   c-0.887,0.279,0.228,0.633,0.506,0.607c0.279-0.024,3.244,0.077,3.522,0.051c0.279-0.025,0.152,0.076,0.177,0.432   c0.025,0.354,3.421,0.228,5.018,0c1.597-0.229,1.825-5.018,1.673-5.777c1.14-0.456,1.292-0.913,2.128-1.521   c0.836-0.608,4.751-2.053,7.032-2.242c2.281-0.191,6.843,1.938,8.705,2.052c1.862,0.115,7.755,0.799,9.199,1.141   c1.444,0.343,3.611,0.875,5.018,0.077c1.406-0.799,4.181-1.255,5.625-1.218c1.444,0.039,13.343,2.167,14.369,2.434   c1.026,0.266,1.291-0.569,1.33-1.406c0.038-0.837,0.913-0.723,0.913-0.723c0.91,0.723,0.95,1.482,0.531,1.56   c-0.608,0-0.95,0.151-1.255,0.798c-0.304,0.646,1.141,1.747,2.928,1.329C89.139,57.936,88.303,54.741,88.261,54.285z"/><path d="M19.81,36.61c-0.042,0.163,0.057,0.329,0.219,0.37c0.207,0.054,0.38,0.112,0.491,0.155   c0.021,0.196,0.088,0.416,0.205,0.665c0.051,0.11,0.161,0.176,0.276,0.176c0.043,0,0.086-0.009,0.128-0.029   c0.152-0.07,0.218-0.251,0.147-0.404c-0.141-0.303-0.162-0.481-0.153-0.577c0.007-0.089-0.025-0.177-0.088-0.241   c-0.151-0.15-0.783-0.315-0.854-0.334C20.018,36.349,19.852,36.448,19.81,36.61z"/><path d="M16.813,38.19c0.053,0.108,0.161,0.172,0.274,0.172c0.044,0,0.09-0.01,0.132-0.03c0.907-0.439,1.43-0.872,1.554-1.284   c0.048-0.161-0.043-0.331-0.204-0.379c-0.161-0.047-0.33,0.042-0.378,0.204c-0.055,0.182-0.458,0.535-1.236,0.912   C16.804,37.857,16.74,38.04,16.813,38.19z"/><path d="M15.318,38.383c-0.401,0.095-0.584,0.087-0.645,0.081c-0.159-0.021-0.304,0.086-0.336,0.242   c-0.029,0.144-0.125,0.369-0.267,0.524c-0.114,0.123-0.105,0.315,0.018,0.43c0.059,0.053,0.132,0.08,0.206,0.08   c0.082,0,0.164-0.033,0.224-0.099c0.161-0.174,0.274-0.382,0.344-0.568c0.168-0.01,0.368-0.043,0.598-0.098   c0.163-0.039,0.264-0.203,0.225-0.367C15.645,38.444,15.481,38.344,15.318,38.383z"/><path d="M59.392,37.742c0.048,0.027,0.1,0.04,0.15,0.04c0.105,0,0.208-0.055,0.265-0.153c0.083-0.146,0.032-0.332-0.114-0.415   c-0.413-0.236-0.836-0.499-1.258-0.78c-0.14-0.093-0.328-0.056-0.421,0.083c-0.095,0.14-0.056,0.329,0.083,0.422   C58.53,37.229,58.966,37.499,59.392,37.742z"/><path d="M60.748,38.442c0.476,0.22,0.954,0.413,1.421,0.573c0.033,0.011,0.066,0.017,0.1,0.017c0.126,0,0.243-0.08,0.287-0.206   c0.055-0.158-0.03-0.332-0.188-0.386c-0.449-0.154-0.908-0.339-1.364-0.549c-0.152-0.071-0.333-0.003-0.404,0.149   C60.528,38.192,60.596,38.373,60.748,38.442z"/><path d="M56.859,36.057c0.057,0.042,0.12,0.062,0.185,0.062c0.091,0,0.183-0.042,0.242-0.121c0.102-0.134,0.074-0.325-0.059-0.426   c-0.382-0.288-0.771-0.6-1.163-0.927c-0.13-0.108-0.32-0.09-0.429,0.039c-0.107,0.128-0.09,0.32,0.038,0.428   C56.073,35.445,56.471,35.764,56.859,36.057z"/><path d="M48.55,29.967c0.468,0.141,0.927,0.315,1.364,0.517c0.041,0.019,0.085,0.028,0.128,0.028c0.114,0,0.226-0.065,0.276-0.177   c0.069-0.152,0.003-0.333-0.149-0.404c-0.464-0.213-0.949-0.396-1.443-0.545c-0.16-0.049-0.331,0.043-0.379,0.203   C48.298,29.749,48.39,29.919,48.55,29.967z"/><path d="M42.69,29.724c0.002,0,0.005,0,0.007,0c0.478-0.012,0.832-0.041,1.084-0.086c0.139-0.025,0.285-0.047,0.438-0.066   c0.167-0.021,0.285-0.172,0.264-0.339c-0.02-0.167-0.171-0.284-0.339-0.265c-0.165,0.021-0.322,0.045-0.472,0.072   c-0.218,0.04-0.552,0.065-0.991,0.076c-0.168,0.004-0.3,0.144-0.296,0.313C42.39,29.593,42.525,29.724,42.69,29.724z"/><path d="M51.193,31.184c0.405,0.261,0.798,0.555,1.168,0.873c0.057,0.05,0.128,0.074,0.198,0.074c0.085,0,0.169-0.036,0.229-0.106   c0.109-0.126,0.096-0.319-0.032-0.429c-0.39-0.336-0.805-0.647-1.234-0.923c-0.142-0.091-0.33-0.05-0.421,0.092   C51.011,30.905,51.051,31.093,51.193,31.184z"/><path d="M54.534,34.117c0.058,0.053,0.131,0.079,0.204,0.079c0.082,0,0.165-0.034,0.225-0.1c0.113-0.125,0.104-0.317-0.021-0.43   c-0.354-0.32-0.719-0.664-1.085-1.021c-0.121-0.117-0.314-0.115-0.431,0.006c-0.117,0.12-0.114,0.313,0.006,0.429   C53.806,33.444,54.176,33.792,54.534,34.117z"/><path d="M45.673,29.504c0.482,0.013,0.972,0.058,1.454,0.136c0.017,0.002,0.033,0.004,0.049,0.004c0.146,0,0.276-0.107,0.3-0.255   c0.027-0.167-0.086-0.323-0.252-0.349c-0.509-0.082-1.024-0.13-1.534-0.144c-0.003,0-0.006,0-0.008,0   c-0.164,0-0.299,0.13-0.304,0.296C45.373,29.359,45.506,29.5,45.673,29.504z"/><path d="M77.752,44.596c0.524,0.184,1.004,0.349,1.426,0.492c0.033,0.011,0.066,0.017,0.099,0.017c0.126,0,0.245-0.08,0.288-0.207   c0.054-0.159-0.032-0.332-0.19-0.386c-0.42-0.143-0.898-0.308-1.421-0.491c-0.158-0.055-0.332,0.028-0.387,0.187   C77.511,44.367,77.595,44.541,77.752,44.596z"/><path d="M74.915,43.589c0.488,0.175,0.964,0.344,1.418,0.506c0.033,0.012,0.067,0.017,0.103,0.017c0.124,0,0.241-0.077,0.285-0.202   c0.057-0.158-0.025-0.332-0.184-0.388c-0.456-0.161-0.93-0.331-1.417-0.505c-0.158-0.057-0.333,0.025-0.389,0.184   C74.675,43.358,74.757,43.532,74.915,43.589z"/><path d="M80.624,45.559c0.139,0.041,0.251,0.071,0.335,0.091c0.237,0.055,0.474,0.106,0.704,0.157   c0.15,0.034,0.299,0.066,0.443,0.099c0.023,0.005,0.046,0.008,0.067,0.008c0.141,0,0.265-0.097,0.297-0.238   c0.036-0.165-0.065-0.327-0.229-0.363c-0.147-0.034-0.297-0.066-0.449-0.1c-0.228-0.05-0.461-0.101-0.693-0.155   c-0.077-0.019-0.179-0.046-0.303-0.083c-0.161-0.048-0.33,0.045-0.378,0.205C80.371,45.341,80.463,45.511,80.624,45.559z"/><path d="M83.479,46.316c0.425,0.203,0.425,0.372,0.425,0.437c0,0.04-0.008,0.086-0.022,0.135l-0.084,0.276   c-0.049,0.16,0.041,0.331,0.202,0.381c0.029,0.009,0.06,0.012,0.088,0.012c0.131,0,0.252-0.083,0.292-0.214l0.084-0.279   c0.032-0.105,0.048-0.21,0.048-0.311c0-0.41-0.259-0.741-0.769-0.986c-0.152-0.072-0.335-0.008-0.406,0.143   C83.264,46.062,83.326,46.243,83.479,46.316z"/><path d="M72.083,42.569l1.416,0.511c0.034,0.012,0.068,0.019,0.104,0.019c0.123,0,0.241-0.077,0.285-0.201   c0.058-0.158-0.024-0.333-0.183-0.389l-1.416-0.511c-0.156-0.057-0.332,0.024-0.389,0.183S71.925,42.512,72.083,42.569z"/><path d="M63.592,39.507c0.419,0.147,0.896,0.318,1.417,0.504c0.033,0.012,0.068,0.018,0.103,0.018c0.124,0,0.242-0.077,0.286-0.202   c0.057-0.158-0.025-0.332-0.185-0.389c-0.521-0.186-0.999-0.357-1.418-0.505c-0.16-0.057-0.332,0.027-0.39,0.185   C63.35,39.277,63.433,39.451,63.592,39.507z"/><path d="M66.424,40.521l1.414,0.512c0.035,0.012,0.069,0.018,0.104,0.018c0.125,0,0.242-0.077,0.287-0.201   c0.057-0.158-0.025-0.332-0.184-0.389l-1.415-0.511c-0.158-0.057-0.333,0.024-0.389,0.183   C66.184,40.29,66.266,40.464,66.424,40.521z"/><path d="M69.253,41.545l1.414,0.512c0.035,0.012,0.07,0.018,0.104,0.018c0.125,0,0.242-0.077,0.287-0.2   c0.057-0.158-0.024-0.333-0.182-0.39l-1.415-0.513c-0.158-0.058-0.333,0.024-0.391,0.183   C69.015,41.313,69.096,41.487,69.253,41.545z"/><path d="M7.445,34.139c-0.158,0.056-0.242,0.23-0.185,0.388c0.177,0.501,0.427,0.988,0.722,1.406   c0.06,0.084,0.153,0.129,0.249,0.129c0.06,0,0.122-0.018,0.175-0.055c0.138-0.097,0.17-0.286,0.073-0.424   c-0.183-0.261-0.444-0.69-0.645-1.259C7.777,34.167,7.603,34.083,7.445,34.139z"/><path d="M11.608,38.108c-0.066,0.154,0.005,0.333,0.16,0.399c0.278,0.12,0.692,0.356,1.084,0.809   c0.06,0.069,0.145,0.105,0.23,0.105c0.07,0,0.142-0.025,0.198-0.075c0.127-0.109,0.141-0.301,0.032-0.429   c-0.468-0.541-0.968-0.826-1.305-0.97C11.853,37.882,11.674,37.954,11.608,38.108z"/><path d="M13.734,28.734c0.436,0.117,0.851,0.309,1.269,0.585c0.052,0.034,0.11,0.051,0.167,0.051c0.099,0,0.195-0.048,0.254-0.136   c0.093-0.14,0.055-0.329-0.085-0.422c-0.473-0.313-0.947-0.531-1.447-0.665c-0.163-0.043-0.329,0.053-0.373,0.215   C13.476,28.524,13.572,28.691,13.734,28.734z"/><path d="M10.87,28.973c0.036,0,0.073-0.007,0.108-0.021c0.471-0.18,0.933-0.292,1.375-0.332c0.167-0.015,0.291-0.163,0.275-0.331   c-0.015-0.167-0.163-0.288-0.33-0.275c-0.497,0.045-1.015,0.169-1.537,0.369c-0.157,0.06-0.235,0.235-0.175,0.393   C10.632,28.898,10.747,28.973,10.87,28.973z"/><path d="M19.22,31.044c0.004,0,0.009-0.001,0.014-0.001c0.537-0.023,1.062-0.132,1.56-0.323c0.157-0.06,0.235-0.236,0.175-0.393   s-0.236-0.235-0.393-0.175c-0.436,0.167-0.896,0.263-1.368,0.283c-0.168,0.007-0.298,0.15-0.291,0.317   C18.924,30.917,19.059,31.044,19.22,31.044z"/><path d="M16.198,30.233c0.43,0.278,0.934,0.497,1.458,0.637c0.026,0.006,0.053,0.01,0.079,0.01c0.134,0,0.257-0.09,0.293-0.227   c0.043-0.162-0.053-0.329-0.215-0.372c-0.463-0.124-0.907-0.317-1.285-0.56c-0.141-0.091-0.329-0.051-0.42,0.091   C16.017,29.955,16.057,30.143,16.198,30.233z"/><path d="M39.669,29.658c0.535,0.026,1.042,0.046,1.51,0.058c0.002,0,0.005,0,0.008,0c0.164,0,0.299-0.131,0.304-0.296   c0.004-0.168-0.128-0.307-0.296-0.312c-0.463-0.012-0.966-0.032-1.496-0.058c-0.168-0.006-0.311,0.121-0.319,0.289   C39.372,29.507,39.501,29.65,39.669,29.658z"/><path d="M8.336,30.548c0.079,0,0.157-0.031,0.217-0.091c0.196-0.199,0.425-0.39,0.68-0.564c0.154-0.105,0.306-0.204,0.455-0.295   c0.143-0.088,0.188-0.275,0.101-0.418C9.7,29.037,9.513,28.992,9.37,29.079c-0.158,0.097-0.318,0.2-0.481,0.313   c-0.286,0.196-0.545,0.412-0.769,0.639c-0.118,0.12-0.116,0.312,0.003,0.43C8.182,30.519,8.259,30.548,8.336,30.548z"/><path d="M9.509,36.421c-0.15-0.077-0.333-0.019-0.41,0.13c-0.078,0.149-0.02,0.333,0.13,0.41c0.366,0.189,0.682,0.468,0.988,0.738   l0.145,0.127c0.058,0.05,0.128,0.075,0.2,0.075c0.084,0,0.169-0.036,0.229-0.104c0.11-0.127,0.097-0.319-0.03-0.43l-0.143-0.125   C10.301,36.963,9.941,36.645,9.509,36.421z"/><path d="M7.263,33.262c0.002,0,0.005,0,0.008,0c0.168-0.005,0.301-0.145,0.296-0.313l-0.002-0.105c0-0.44,0.078-0.859,0.23-1.245   c0.062-0.156-0.015-0.333-0.17-0.395c-0.156-0.062-0.333,0.015-0.395,0.17c-0.181,0.458-0.273,0.952-0.273,1.469   c0,0.041,0,0.081,0.001,0.121C6.963,33.131,7.098,33.262,7.263,33.262z"/><path d="M33.659,29.228c0.491,0.044,0.994,0.086,1.5,0.128c0.008,0,0.017,0.001,0.025,0.001c0.157,0,0.29-0.12,0.303-0.28   c0.014-0.167-0.11-0.314-0.278-0.328c-0.504-0.041-1.005-0.083-1.495-0.127c-0.168-0.014-0.315,0.108-0.33,0.276   C33.369,29.065,33.492,29.213,33.659,29.228z"/><path d="M27.664,28.568c0.067,0.009,0.133,0.02,0.199,0.031c0.267,0.045,0.703,0.104,1.298,0.175   c0.012,0.001,0.024,0.002,0.036,0.002c0.151,0,0.283-0.113,0.302-0.268c0.02-0.167-0.1-0.318-0.267-0.338   c-0.576-0.068-1.014-0.127-1.267-0.17c-0.073-0.012-0.146-0.023-0.219-0.034c-0.168-0.023-0.32,0.094-0.342,0.26   C27.381,28.392,27.498,28.545,27.664,28.568z"/><path d="M36.66,29.471c0.508,0.037,1.012,0.072,1.503,0.103c0.007,0,0.013,0,0.02,0c0.159,0,0.293-0.125,0.304-0.285   c0.01-0.167-0.117-0.312-0.285-0.323c-0.49-0.03-0.991-0.065-1.497-0.102c-0.169-0.011-0.314,0.114-0.326,0.282   S36.493,29.459,36.66,29.471z"/><path d="M30.66,28.939c0.467,0.049,0.97,0.1,1.5,0.15c0.01,0,0.02,0.001,0.029,0.001c0.154,0,0.287-0.117,0.302-0.274   c0.016-0.168-0.106-0.316-0.273-0.332c-0.527-0.05-1.029-0.101-1.494-0.149c-0.168-0.018-0.317,0.104-0.334,0.271   C30.372,28.772,30.493,28.922,30.66,28.939z"/><path d="M21.996,30.016c0.054,0,0.11-0.015,0.16-0.046c0.423-0.261,0.857-0.492,1.29-0.686c0.153-0.068,0.222-0.249,0.153-0.401   c-0.068-0.153-0.249-0.223-0.402-0.153c-0.457,0.205-0.915,0.448-1.36,0.724c-0.143,0.088-0.187,0.275-0.099,0.418   C21.794,29.965,21.894,30.016,21.996,30.016z"/><path d="M24.731,28.802c0.026,0,0.053-0.004,0.08-0.011c0.479-0.131,0.957-0.217,1.421-0.256c0.167-0.014,0.292-0.161,0.278-0.329   c-0.014-0.167-0.162-0.292-0.329-0.278c-0.501,0.042-1.016,0.135-1.53,0.275c-0.162,0.044-0.258,0.211-0.213,0.374   C24.476,28.713,24.597,28.802,24.731,28.802z"/><path d="M22.544,40.278c0.06,0.068,0.144,0.102,0.227,0.102c0.072,0,0.144-0.025,0.202-0.078c0.125-0.112,0.137-0.304,0.025-0.429   c-0.377-0.423-0.688-0.793-0.949-1.132c-0.103-0.134-0.294-0.158-0.426-0.055c-0.133,0.103-0.157,0.293-0.055,0.427   C21.838,39.463,22.158,39.845,22.544,40.278z"/></g><text x="0" y="105" fill="#000000" font-size="5px" font-weight="bold" font-family="'Helvetica Neue', Helvetica, Arial-Unicode, Arial, Sans-serif">Created by Drahomír Hájek</text><text x="0" y="110" fill="#000000" font-size="5px" font-weight="bold" font-family="'Helvetica Neue', Helvetica, Arial-Unicode, Arial, Sans-serif">from the Noun Project</text></svg>