<svg xmlns="http://www.w3.org/2000/svg" xmlns:xlink="http://www.w3.org/1999/xlink" version="1.1" x="0px" y="0px" viewBox="0 0 90 112.5" enable-background="new 0 0 90 90" xml:space="preserve"><path d="M31.41,26.46c2.918-2.145,6.356-3.622,10.09-4.194V15.21c-5.661,0.658-10.839,2.892-15.088,6.252L31.41,26.46z"/><path d="M22.266,41.5c0.573-3.734,2.049-7.172,4.194-10.09l-4.998-4.998c-3.36,4.25-5.594,9.427-6.252,15.088H22.266z"/><g><path d="M68.436,27.929c2.716,3.723,4.501,8.029,5.209,12.571h-5.067c-0.612-3.198-1.89-6.272-3.733-8.98L68.436,27.929    M68.538,26.412l-4.998,4.998c2.146,2.918,3.622,6.357,4.194,10.091h7.056C74.132,35.839,71.898,30.661,68.538,26.412   L68.538,26.412z"/></g><g><path d="M49.5,16.355c4.542,0.709,8.848,2.494,12.571,5.21l-3.592,3.591c-2.707-1.844-5.781-3.122-8.979-3.733V16.355 M48.5,15.21   v7.056c3.734,0.573,7.173,2.049,10.091,4.194l4.998-4.998C59.339,18.102,54.161,15.868,48.5,15.21L48.5,15.21z"/></g><path d="M67.734,48.5c-0.572,3.734-2.049,7.173-4.194,10.091l4.998,4.998c3.36-4.25,5.594-9.428,6.252-15.089H67.734z"/><path d="M58.591,63.54c-2.918,2.146-6.356,3.622-10.091,4.194v7.056c5.661-0.658,10.839-2.892,15.089-6.252L58.591,63.54z"/><path d="M26.46,58.591c-2.145-2.918-3.622-6.356-4.194-10.091H15.21c0.658,5.661,2.892,10.839,6.252,15.089L26.46,58.591z"/><path d="M41.5,67.734c-3.734-0.572-7.172-2.049-10.091-4.194l-4.998,4.998c4.25,3.36,9.427,5.594,15.088,6.252V67.734z"/><text x="0" y="105" fill="#000000" font-size="5px" font-weight="bold" font-family="'Helvetica Neue', Helvetica, Arial-Unicode, Arial, Sans-serif">Created by José Manuel de Laá</text><text x="0" y="110" fill="#000000" font-size="5px" font-weight="bold" font-family="'Helvetica Neue', Helvetica, Arial-Unicode, Arial, Sans-serif">from the Noun Project</text></svg>