<svg xmlns="http://www.w3.org/2000/svg" xmlns:xlink="http://www.w3.org/1999/xlink" version="1.1" x="0px" y="0px" viewBox="0 0 100 125" enable-background="new 0 0 100 100" xml:space="preserve"><path fill="#000000" d="M78.143,89.527c-0.312-5.119-6.305-6.555-8.68-6.618c-0.381-0.321,6.746-5.308,4.621-11.3  c0.189-1.374,1-2.497-1.186-5.93c-0.922-3.036-1.621-9.054-1.686-9.366c-0.062-0.313-0.436-5.619-4.496-7.867  c-0.561-0.249-3.496-1.685-6.117-2.559c0,0-2.402-3.116-3.678-3.116c-0.023,0-0.047,0.002-0.072,0.005c0,0-2.061-2.622-0.498-4.746  c0,0,0.109,1.585,0.891,1.585c0.055,0,0.111-0.008,0.172-0.023c0.939-0.25,0.939-1.124,0.688-2.061  c-0.25-0.937,0.439-1.748,0.562-2.122c0.125-0.375,2.248-4.121,0.186-4.996c0,0,1.123-6.243-4.246-8.115c0,0,1.176-2.356-0.6-4.281  c-0.486-0.795-1.471-1.413-2.691-1.675c0.072-0.172,0.113-0.361,0.113-0.56c0-0.787-1.427-1.875-1.427-1.875  s-1.426,1.088-1.426,1.875c0,0.199,0.041,0.388,0.116,0.56c-1.22,0.262-2.206,0.879-2.691,1.674c-1.777,1.925-0.6,4.282-0.6,4.282  c-5.371,1.872-4.247,8.115-4.247,8.115c-2.061,0.875,0.062,4.621,0.189,4.996c0.122,0.374,0.811,1.186,0.561,2.122  c-0.249,0.937-0.249,1.811,0.687,2.061c0.06,0.016,0.118,0.023,0.171,0.023c0.781,0,0.89-1.585,0.89-1.585  c1.563,2.124-0.5,4.746-0.5,4.746c-0.023-0.003-0.048-0.005-0.073-0.005c-1.27,0-3.674,3.116-3.674,3.116  c-2.622,0.874-5.555,2.31-6.118,2.559c-4.057,2.248-4.432,7.554-4.493,7.867c-0.063,0.312-0.764,6.33-1.685,9.366  c-2.186,3.433-1.375,4.556-1.188,5.93c-2.123,5.992,5.005,10.979,4.621,11.3c-2.372,0.063-8.364,1.499-8.679,6.618  c0,7.24,20.104,8.229,20.104,8.229c2.73,0.178,5.431,0.261,8.256,0.265c0.059,0,0.117,0,0.175,0c2.319,0,4.688-0.042,7.647-0.265  C58.039,97.756,78.143,96.768,78.143,89.527z"/><path fill="#000000" d="M31.463,47.554c0.311-0.229,0.634-0.444,0.974-0.633l0.068-0.039l0.072-0.03  c0.086-0.039,0.233-0.107,0.429-0.198c0.34-0.158,0.832-0.388,1.41-0.646c-4.826-4.295-7.889-10.532-7.889-17.487  c0-12.917,10.509-23.425,23.426-23.425c12.917,0,23.426,10.508,23.426,23.425c0,6.938-3.049,13.164-7.857,17.458  c0.615,0.275,1.135,0.518,1.49,0.684c0.188,0.088,0.328,0.154,0.414,0.191l0.07,0.03l0.066,0.038  c0.32,0.178,0.623,0.382,0.918,0.597c4.941-4.82,8.014-11.548,8.014-18.996c0-14.658-11.883-26.542-26.541-26.542  c-14.661,0-26.542,11.884-26.542,26.542C23.412,35.988,26.5,42.731,31.463,47.554z"/><path fill="#000000" d="M38.608,32.907c-0.14-0.799-0.14-1.597,0.139-2.326c0.135-0.354,0.324-0.67,0.562-0.943  c-0.014-0.255-0.017-0.525-0.012-0.803L27.81,29.959c0.161,2.501,0.716,4.896,1.64,7.105L38.608,32.907z"/><path fill="#000000" d="M60.463,26.765l11.496-1.125c-0.318-2.456-1.043-4.782-2.1-6.921l-10.732,4.873  C59.814,24.587,60.23,25.688,60.463,26.765z"/><path fill="#000000" d="M56.682,21.336c0.408,0.236,0.775,0.501,1.111,0.784l9.818-7.025c-1.447-1.898-3.176-3.568-5.148-4.918  l-6.059,8.468C56.75,19.582,56.791,20.521,56.682,21.336z"/><path fill="#000000" d="M53.068,15.084c0.771,0.341,1.428,0.812,1.932,1.374l3.775-8.316c-2.127-0.925-4.424-1.521-6.832-1.736  l-0.617,6.327C51.965,13.263,52.785,14.1,53.068,15.084z"/><path fill="#000000" d="M40.803,23.695L30.01,18.796c-1.041,2.124-1.753,4.431-2.067,6.865l11.588,1.133  C39.753,25.746,40.152,24.673,40.803,23.695z"/><path fill="#000000" d="M43.319,21.336c-0.098-0.73-0.069-1.562,0.186-2.402l-6.195-8.658c-1.95,1.355-3.659,3.021-5.087,4.915  l9.851,7.048C42.444,21.91,42.855,21.604,43.319,21.336z"/><path fill="#000000" d="M46.929,15.085c0.244-0.851,0.888-1.59,1.473-2.117l-0.641-6.552c-2.4,0.235-4.683,0.865-6.798,1.806  l3.846,8.475C45.332,16.029,46.055,15.473,46.929,15.085z"/><path fill="#000000" d="M40.209,37.116c-0.005-0.105-0.153-0.377-0.232-0.523c-0.099-0.181-0.2-0.368-0.273-0.572  c-0.017-0.039-0.042-0.09-0.071-0.151c-0.086-0.184-0.174-0.375-0.259-0.569l-7.806,5.586c1.149,1.705,2.506,3.259,4.069,4.586  c0.85-0.362,1.785-0.741,2.712-1.068c1.038-1.282,2.369-2.64,3.679-3.157C41.389,41.043,39.397,40.153,40.209,37.116z"/><path fill="#000000" d="M60.373,35.857c-0.029,0.067-0.055,0.121-0.074,0.162c-0.078,0.213-0.176,0.396-0.273,0.573  c-0.08,0.146-0.227,0.417-0.238,0.488c0.223,0.826,0.26,1.524,0.115,2.137c-0.232,0.991-0.932,1.727-1.93,2.028  c1.312,0.519,2.641,1.876,3.678,3.157c0.898,0.318,1.807,0.684,2.637,1.035c1.516-1.291,2.84-2.791,3.969-4.438l-7.701-5.541  C60.494,35.594,60.436,35.729,60.373,35.857z"/><path fill="#000000" d="M70.346,37.104l-0.002,0.002c0.008,0.006,0.018,0.014,0.027,0.021c0.943-2.227,1.559-4.624,1.725-7.151  l-11.393-1.113c0.004,0.267,0.002,0.527-0.012,0.773c0.236,0.272,0.428,0.589,0.561,0.942c0.295,0.768,0.283,1.611,0.119,2.452  L70.346,37.104z"/><text x="0" y="115" fill="#000000" font-size="5px" font-weight="bold" font-family="'Helvetica Neue', Helvetica, Arial-Unicode, Arial, Sans-serif">Created by Cass Reese</text><text x="0" y="120" fill="#000000" font-size="5px" font-weight="bold" font-family="'Helvetica Neue', Helvetica, Arial-Unicode, Arial, Sans-serif">from the Noun Project</text></svg>