<svg xmlns="http://www.w3.org/2000/svg" xmlns:xlink="http://www.w3.org/1999/xlink" version="1.1" x="0px" y="0px" viewBox="0 0 100 125" enable-background="new 0 0 100 100" xml:space="preserve"><path fill="#000000" d="M70.4,82.445c-0.398-0.338,7.071-5.562,4.844-11.844c0.199-1.439,1.048-2.617-1.242-6.215  c-0.966-3.182-1.699-9.488-1.767-9.816c-0.065-0.328-0.457-5.884-4.713-8.24c-0.048-0.021-0.116-0.053-0.194-0.089  c5.232-4.734,8.526-11.574,8.526-19.17c0-14.255-11.598-25.853-25.853-25.853c-14.257,0-25.855,11.598-25.855,25.853  c0,7.596,3.294,14.436,8.527,19.17c-0.079,0.036-0.148,0.068-0.196,0.089c-4.252,2.356-4.645,7.912-4.709,8.24  c-0.065,0.328-0.801,6.635-1.766,9.816c-2.292,3.598-1.442,4.775-1.246,6.215c-2.226,6.281,5.246,11.506,4.842,11.844  c-2.485,0.066-8.766,1.57-9.096,6.936c0,7.59,21.071,8.625,21.071,8.625c2.861,0.186,5.692,0.273,8.654,0.277  c0.062,0,0.123,0,0.184,0c2.431,0,4.913-0.043,8.015-0.277c0,0,21.071-1.035,21.071-8.625C79.17,84.016,72.89,82.512,70.4,82.445z   M28.339,27.071c0-11.944,9.718-21.661,21.663-21.661c11.943,0,21.659,9.717,21.659,21.661c0,7.053-3.39,13.329-8.625,17.286  c-0.636-0.252-1.289-0.497-1.925-0.708c0,0-2.519-3.266-3.854-3.266c-0.024,0-0.05,0.002-0.076,0.005c0,0-2.16-2.749-0.521-4.975  c0,0,0.114,1.662,0.934,1.662c0.057,0,0.116-0.008,0.18-0.025c0.984-0.262,0.984-1.178,0.72-2.16  c-0.261-0.981,0.461-1.832,0.591-2.224c0.131-0.393,2.356-4.319,0.194-5.236c0,0,1.176-6.543-4.45-8.505c0,0,1.231-2.47-0.629-4.487  c-0.51-0.833-1.542-1.481-2.821-1.756c0.076-0.18,0.119-0.378,0.119-0.586c0-0.825-1.496-1.966-1.496-1.966  s-1.497,1.141-1.497,1.966c0,0.208,0.043,0.406,0.121,0.586c-1.278,0.275-2.312,0.921-2.821,1.755  c-1.862,2.017-0.628,4.488-0.628,4.488c-5.63,1.962-4.452,8.505-4.452,8.505c-2.16,0.917,0.065,4.843,0.199,5.236  c0.127,0.392,0.849,1.243,0.587,2.224c-0.261,0.982-0.261,1.898,0.719,2.16c0.062,0.017,0.125,0.025,0.18,0.025  c0.819,0,0.932-1.662,0.932-1.662c1.639,2.226-0.523,4.975-0.523,4.975c-0.024-0.003-0.05-0.005-0.077-0.005  c-1.331,0-3.851,3.266-3.851,3.266c-0.636,0.212-1.288,0.456-1.924,0.708C31.729,40.399,28.339,34.124,28.339,27.071z"/><text x="0" y="115" fill="#000000" font-size="5px" font-weight="bold" font-family="'Helvetica Neue', Helvetica, Arial-Unicode, Arial, Sans-serif">Created by Cass Reese</text><text x="0" y="120" fill="#000000" font-size="5px" font-weight="bold" font-family="'Helvetica Neue', Helvetica, Arial-Unicode, Arial, Sans-serif">from the Noun Project</text></svg>