<svg xmlns="http://www.w3.org/2000/svg" xmlns:xlink="http://www.w3.org/1999/xlink" version="1.0" x="0px" y="0px" viewBox="0 0 22 26" style="enable-background:new 0 0 22 26;" xml:space="preserve"><path d="M20.627,12.628C21.918,3.755,16.778,0,11,0C5.227,0-0.08,3.722,1.354,12.604C0.529,13.274,0,14.443,0,15.84  c0,1.871,1.793,3.477,3.181,3.987C4.482,24.155,9.222,26,11,26c1.773,0,6.492-1.834,7.809-6.135C20.353,19.375,22,17.624,22,15.84  C22,14.492,21.45,13.313,20.627,12.628z M11,18L11,18c-3.309,0-6-2.691-6-6c0-3.309,2.691-6,6-6V4l4,3l-4,3V8c-2.206,0-4,1.794-4,4  c0,2.205,1.794,4,4,4s4-1.795,4-4c0-0.255-0.023-0.507-0.069-0.749c-0.104-0.542,0.253-1.066,0.796-1.169  c0.542-0.105,1.066,0.254,1.169,0.796C16.965,11.243,17,11.62,17,12C17,15.309,14.309,18,11,18z"></path></svg>