<svg xmlns="http://www.w3.org/2000/svg" xmlns:xlink="http://www.w3.org/1999/xlink" version="1.1" x="0px" y="0px" viewBox="0 0 100 125" enable-background="new 0 0 100 100" xml:space="preserve"><path fill="#000000" d="M72.213,80.762c-0.436-0.367,7.697-6.059,5.273-12.898c0.215-1.568,1.141-2.85-1.353-6.77  c-1.054-3.465-1.853-10.332-1.925-10.688c-0.071-0.356-0.499-6.413-5.132-8.979c-0.64-0.285-3.989-1.924-6.981-2.921  c0,0-2.852-3.706-4.276-3.563c0,0-2.352-2.993-0.569-5.416c0,0,0.142,2.067,1.211,1.782c1.069-0.286,1.069-1.283,0.783-2.351  c-0.284-1.069,0.5-1.996,0.642-2.423c0.143-0.428,2.566-4.703,0.214-5.701c0,0,1.282-7.125-4.845-9.263c0,0,1.342-2.69-0.684-4.887  c-0.555-0.907-1.681-1.612-3.074-1.912c0.083-0.196,0.13-0.412,0.13-0.638C51.627,3.234,50,1.993,50,1.993s-1.627,1.242-1.627,2.141  c0,0.227,0.046,0.442,0.131,0.638c-1.393,0.299-2.518,1.003-3.073,1.91c-2.028,2.197-0.685,4.888-0.685,4.888  c-6.128,2.138-4.845,9.263-4.845,9.263c-2.352,0.998,0.07,5.273,0.214,5.701c0.142,0.427,0.926,1.354,0.641,2.423  c-0.285,1.068-0.285,2.065,0.784,2.351c1.069,0.285,1.212-1.782,1.212-1.782c1.781,2.423-0.57,5.416-0.57,5.416  c-1.425-0.143-4.275,3.563-4.275,3.563c-2.993,0.998-6.342,2.637-6.983,2.921c-4.631,2.565-5.059,8.622-5.13,8.979  s-0.871,7.224-1.924,10.688c-2.493,3.92-1.567,5.201-1.354,6.77c-2.423,6.84,5.71,12.531,5.273,12.898  c-2.708,0.07-9.548,1.709-9.905,7.553c0,8.266,22.945,9.391,22.945,9.391c3.117,0.205,6.198,0.299,9.421,0.303  c2.708,0.002,5.466-0.043,8.924-0.303c0,0,22.945-1.125,22.945-9.391C81.763,82.471,74.922,80.832,72.213,80.762z"/><text x="0" y="115" fill="#000000" font-size="5px" font-weight="bold" font-family="'Helvetica Neue', Helvetica, Arial-Unicode, Arial, Sans-serif">Created by Cass Reese</text><text x="0" y="120" fill="#000000" font-size="5px" font-weight="bold" font-family="'Helvetica Neue', Helvetica, Arial-Unicode, Arial, Sans-serif">from the Noun Project</text></svg>